<?xml version="1.0" encoding="UTF-8" standalone="no"?>
<!DOCTYPE svg PUBLIC "-//W3C//DTD SVG 1.1//EN"
 "http://www.w3.org/Graphics/SVG/1.1/DTD/svg11.dtd">
<!-- Generated by graphviz version 2.40.1 (20161225.0304)
 -->
<!-- Title: state transitions Pages: 1 -->
<svg width="271pt" height="352pt"
 viewBox="0.00 0.00 271.00 352.00" xmlns="http://www.w3.org/2000/svg" xmlns:xlink="http://www.w3.org/1999/xlink">
<g id="graph0" class="graph" transform="scale(1 1) rotate(0) translate(4 348)">
<title>state transitions</title>
<polygon fill="#ffffff" stroke="transparent" points="-4,4 -4,-348 267,-348 267,4 -4,4"/>
<g id="clust1" class="cluster state regular">
<title>cluster_next_state</title>
<path fill="none" stroke="#000000" stroke-width="2" d="M20,-8C20,-8 243,-8 243,-8 249,-8 255,-14 255,-20 255,-20 255,-324 255,-324 255,-330 249,-336 243,-336 243,-336 20,-336 20,-336 14,-336 8,-330 8,-324 8,-324 8,-20 8,-20 8,-14 14,-8 20,-8"/>
<text text-anchor="start" x="104.3208" y="-317.2" font-family="Helvetica,sans-Serif" font-size="12.00" fill="#000000">next_state</text>
</g>
<!-- next_state -->
<!-- IDLE -->
<g id="node2" class="node state regular">
<title>IDLE</title>
<polygon fill="#ffffff" fill-opacity="0.003922" stroke="transparent" stroke-width="2" points="106,-298 50,-298 50,-262 106,-262 106,-298"/>
<text text-anchor="start" x="64.6644" y="-276.2" font-family="Helvetica,sans-Serif" font-size="12.00" fill="#000000">IDLE</text>
<path fill="none" stroke="#000000" stroke-width="2" d="M62.3333,-263C62.3333,-263 93.6667,-263 93.6667,-263 99.3333,-263 105,-268.6667 105,-274.3333 105,-274.3333 105,-285.6667 105,-285.6667 105,-291.3333 99.3333,-297 93.6667,-297 93.6667,-297 62.3333,-297 62.3333,-297 56.6667,-297 51,-291.3333 51,-285.6667 51,-285.6667 51,-274.3333 51,-274.3333 51,-268.6667 56.6667,-263 62.3333,-263"/>
</g>
<!-- IDLE&#45;&gt;IDLE -->
<g id="edge2" class="edge transition">
<title>IDLE&#45;&gt;IDLE</title>
<path fill="none" stroke="#000000" d="M106.0183,-284.8247C117.888,-285.1883 128,-283.5801 128,-280 128,-277.5387 123.2205,-276.0094 116.3762,-275.4121"/>
<polygon fill="#000000" stroke="#000000" points="116.0957,-271.9049 106.0183,-275.1753 115.9356,-278.903 116.0957,-271.9049"/>
<text text-anchor="start" x="128" y="-277" font-family="Helvetica,sans-Serif" font-size="10.00" fill="#000000">not (take_img) &#160;&#160;</text>
</g>
<!-- READ_FRAME -->
<g id="node3" class="node state regular">
<title>READ_FRAME</title>
<polygon fill="#ffffff" fill-opacity="0.003922" stroke="transparent" stroke-width="2" points="119.5,-216 16.5,-216 16.5,-180 119.5,-180 119.5,-216"/>
<text text-anchor="start" x="27.502" y="-194.2" font-family="Helvetica,sans-Serif" font-size="12.00" fill="#000000">READ_FRAME</text>
<path fill="none" stroke="#000000" stroke-width="2" d="M28.8333,-181C28.8333,-181 107.1667,-181 107.1667,-181 112.8333,-181 118.5,-186.6667 118.5,-192.3333 118.5,-192.3333 118.5,-203.6667 118.5,-203.6667 118.5,-209.3333 112.8333,-215 107.1667,-215 107.1667,-215 28.8333,-215 28.8333,-215 23.1667,-215 17.5,-209.3333 17.5,-203.6667 17.5,-203.6667 17.5,-192.3333 17.5,-192.3333 17.5,-186.6667 23.1667,-181 28.8333,-181"/>
</g>
<!-- IDLE&#45;&gt;READ_FRAME -->
<g id="edge1" class="edge transition">
<title>IDLE&#45;&gt;READ_FRAME</title>
<path fill="none" stroke="#000000" d="M75.7807,-261.8015C74.5119,-251.3976 72.8929,-238.1215 71.4606,-226.3768"/>
<polygon fill="#000000" stroke="#000000" points="74.898,-225.6503 70.2131,-216.1476 67.9495,-226.4978 74.898,-225.6503"/>
<text text-anchor="start" x="73" y="-236" font-family="Helvetica,sans-Serif" font-size="10.00" fill="#000000">take_img &#160;&#160;</text>
</g>
<!-- READ_FRAME&#45;&gt;READ_FRAME -->
<g id="edge4" class="edge transition">
<title>READ_FRAME&#45;&gt;READ_FRAME</title>
<path fill="none" stroke="#000000" d="M119.5182,-202.7988C132.1211,-202.4434 141.5,-200.8438 141.5,-198 141.5,-196.0005 136.8632,-194.6161 129.7292,-193.8467"/>
<polygon fill="#000000" stroke="#000000" points="129.7191,-190.3392 119.5182,-193.2012 129.2774,-197.3252 129.7191,-190.3392"/>
<text text-anchor="start" x="141.5" y="-195" font-family="Helvetica,sans-Serif" font-size="10.00" fill="#000000">not (frame_done) &#160;&#160;</text>
</g>
<!-- PROCESS_FRAME -->
<g id="node4" class="node state regular">
<title>PROCESS_FRAME</title>
<polygon fill="#ffffff" fill-opacity="0.003922" stroke="transparent" stroke-width="2" points="183.5,-134 54.5,-134 54.5,-98 183.5,-98 183.5,-134"/>
<text text-anchor="start" x="65.8318" y="-112.2" font-family="Helvetica,sans-Serif" font-size="12.00" fill="#000000">PROCESS_FRAME</text>
<path fill="none" stroke="#000000" stroke-width="2" d="M66.8333,-99C66.8333,-99 171.1667,-99 171.1667,-99 176.8333,-99 182.5,-104.6667 182.5,-110.3333 182.5,-110.3333 182.5,-121.6667 182.5,-121.6667 182.5,-127.3333 176.8333,-133 171.1667,-133 171.1667,-133 66.8333,-133 66.8333,-133 61.1667,-133 55.5,-127.3333 55.5,-121.6667 55.5,-121.6667 55.5,-110.3333 55.5,-110.3333 55.5,-104.6667 61.1667,-99 66.8333,-99"/>
</g>
<!-- READ_FRAME&#45;&gt;PROCESS_FRAME -->
<g id="edge3" class="edge transition">
<title>READ_FRAME&#45;&gt;PROCESS_FRAME</title>
<path fill="none" stroke="#000000" d="M79.3186,-179.8015C86.0534,-168.973 94.7234,-155.033 102.2405,-142.9466"/>
<polygon fill="#000000" stroke="#000000" points="105.4037,-144.4877 107.7131,-134.1476 99.4596,-140.7907 105.4037,-144.4877"/>
<text text-anchor="start" x="96" y="-154" font-family="Helvetica,sans-Serif" font-size="10.00" fill="#000000">frame_done &#160;&#160;</text>
</g>
<!-- WRITE_FRAME -->
<g id="node5" class="node state regular">
<title>WRITE_FRAME</title>
<polygon fill="#ffffff" fill-opacity="0.003922" stroke="transparent" stroke-width="2" points="210.5,-52 101.5,-52 101.5,-16 210.5,-16 210.5,-52"/>
<text text-anchor="start" x="112.8386" y="-30.2" font-family="Helvetica,sans-Serif" font-size="12.00" fill="#000000">WRITE_FRAME</text>
<path fill="none" stroke="#000000" stroke-width="2" d="M113.8333,-17C113.8333,-17 198.1667,-17 198.1667,-17 203.8333,-17 209.5,-22.6667 209.5,-28.3333 209.5,-28.3333 209.5,-39.6667 209.5,-39.6667 209.5,-45.3333 203.8333,-51 198.1667,-51 198.1667,-51 113.8333,-51 113.8333,-51 108.1667,-51 102.5,-45.3333 102.5,-39.6667 102.5,-39.6667 102.5,-28.3333 102.5,-28.3333 102.5,-22.6667 108.1667,-17 113.8333,-17"/>
</g>
<!-- PROCESS_FRAME&#45;&gt;WRITE_FRAME -->
<g id="edge5" class="edge transition">
<title>PROCESS_FRAME&#45;&gt;WRITE_FRAME</title>
<path fill="none" stroke="#000000" d="M127.2115,-97.8015C132.0497,-87.0791 138.2644,-73.306 143.6805,-61.3026"/>
<polygon fill="#000000" stroke="#000000" points="146.8888,-62.7022 147.8115,-52.1476 140.5082,-59.8231 146.8888,-62.7022"/>
<text text-anchor="middle" x="140.3895" y="-72" font-family="Helvetica,sans-Serif" font-size="10.00" fill="#000000"> </text>
</g>
<!-- WRITE_FRAME&#45;&gt;IDLE -->
<g id="edge6" class="edge transition">
<title>WRITE_FRAME&#45;&gt;IDLE</title>
<path fill="none" stroke="#000000" d="M210.731,-50.3356C228.6266,-57.3408 244,-65.9828 244,-75 244,-142.5 244,-142.5 244,-142.5 244,-175.4676 254.1701,-189.9226 234,-216 205.6361,-252.6711 152.6652,-268.4635 116.3867,-275.1754"/>
<polygon fill="#000000" stroke="#000000" points="115.4445,-271.7852 106.171,-276.909 116.6157,-278.6865 115.4445,-271.7852"/>
<text text-anchor="middle" x="246.3895" y="-154" font-family="Helvetica,sans-Serif" font-size="10.00" fill="#000000"> </text>
</g>
</g>
</svg>
